**ABCDEFGHIJKLMNOPQRSTUVWXYZabcdefghijklmnopqrstuvwxyz**************************
**PARASOLID !"#$%&'()*+,-./:;<=>?@[\]^_`{|}~0123456789**************************
**PART1;
MC=AMD64;
MC_MODEL=Intel64 Family 6 Model 60 Stepping 3, GenuineIntel;
MC_ID=unknown;
OS=Windows_NT;
OS_RELEASE=6.2;
FRU=Autodesk;
APPL=Autodesk Inventor 2015;
SITE=unknown;
USER=unknown;
FORMAT=text;
GUISE=transmit;
KEY=MR45-sensor;
FILE=C:\Users\MONSTER\Dropbox\3D\minisumo-cnc\MR45-sensor.x_t;
DATE=Wed, 26d Aug 2015d 01d:31d:45d GMT;
**PART2;
SCH=SCH_2600169_25001;
USFLD_SIZE=0;
**PART3;
**END_OF_HEADER*****************************************************************
T51 : TRANSMIT FILE created by modeller version 260016917 SCH_2600169_250010 12
 1 289 2 3 0 0 0 0 1e3 1e-8 0 0 0 1 0 1 1 4 5 6 7 8 9 10 0 0 0 0 0 0 81 1 2 289
 11 1 0 0 0 0 12 70 3 0 4 T1 0 0 4 20 1 13 13 13 4 4 0 1 0 14 0 0 15 0 50 5 215
 0 16 17 0 0 +-.000579681086590423 .000290019059604628 0 0 0 1 .707106781186548
 .707106781186548 0 30 6 257 0 18 19 0 0 +-.0155 -.0125 .013 1 0 0 29 7 288 0 20
 21 0 .0155 .0115 .013 19 8 2 0 1 15 0 22 V0 16 9 7 0 ?23 0 24 25 0 0 1 18 10 8
 0 26 0 27 28 ?1 17 26 0 29 26 26 10 23 9 0 23 -18 27 11 0 30 10 31 32 ?1 29 28
 258 0 10 0 32 .0123614984704226 -.01317403543551014 .00681397796607186 29 32 25
9 0 27 28 33 .01306860525160914 -.01317403543551014 .00681397796607186 29 33 260
 0 31 32 34 .01059373151745622 -.01140626848254376 .00681397796607186 18 31 15 0
 35 27 36 33 ?1 29 34 261 0 36 33 37 .01312132034355964 -.01312132034355964 .006
81397796607186 18 36 20 0 38 31 39 34 ?1 29 37 262 0 39 34 40 .011 -.011 .006813
97796607186 18 39 26 0 41 36 42 37 ?1 29 40 263 0 43 37 44 .0095 -.0125 0 18 43
 30 0 45 46 47 40 ?1 29 44 264 0 42 40 48 .0155 -.0065 0 18 42 31 0 49 39 50 44
 ?1 29 48 265 0 50 44 51 .0155 -.0065 .013 18 50 33 0 52 42 46 48 ?1 29 51 266 0
 46 48 53 .0095 -.0125 .013 18 46 35 0 54 50 43 51 ?1 29 53 267 0 47 51 55 -.009
5 .0125 .012 18 47 41 0 56 43 57 53 ?1 29 55 268 0 58 53 59 -.0095 .0125 .001 18
 58 42 0 60 61 62 55 ?1 29 59 269 0 57 55 63 -.0095 .0126 .012 18 57 44 0 64 47
 61 59 ?1 29 63 270 0 61 59 65 -.0095 .0126 .001 18 61 46 0 66 57 58 63 ?1 29 65
 271 0 67 63 68 .0095 .0125 .001 18 67 51 0 69 62 70 65 ?1 29 68 272 0 62 65 71
 .0095 .0126 .001 18 62 53 0 72 58 67 68 ?1 29 71 273 0 73 68 74 .0095 .0125 .01
2 18 73 58 0 75 70 76 71 ?1 29 74 274 0 70 71 77 .0095 .0126 .012 18 70 60 0 78
 67 73 74 ?1 29 77 275 0 76 74 79 .0143 .0095 .013 18 76 71 0 80 73 81 77 ?1 29
 79 276 0 81 77 82 .0143 .0095 0 18 81 74 0 83 76 84 79 ?1 29 82 277 0 84 79 85
 -.0102 .0095 .013 18 84 78 0 86 81 87 82 ?1 29 85 278 0 87 82 88 -.0102 .0095 0
 18 87 81 0 89 84 90 85 ?1 29 88 279 0 91 85 92 -.0155 .0115 0 18 91 85 0 93 94
 95 88 ?1 29 92 280 0 90 88 96 -.0155 -.0125 0 18 90 86 0 97 87 98 92 ?1 29 96 2
81 0 98 92 99 -.0155 -.0125 .013 18 98 88 0 100 90 94 96 ?1 29 99 282 0 94 96 10
1 -.0155 .0115 .013 18 94 90 0 102 98 91 99 ?1 29 101 283 0 103 99 104 -.0145 .0
125 0 18 103 95 0 105 95 106 101 ?1 29 104 284 0 95 101 107 -.0145 .0125 .013 18
 95 97 0 108 91 103 104 ?1 29 107 285 0 109 104 110 .0145 .0125 0 18 109 103 0 1
11 106 20 107 ?1 29 110 286 0 106 107 21 .0145 .0125 .013 18 106 105 0 112 103 1
09 110 ?1 29 21 287 0 113 110 7 .0155 .0115 0 18 113 110 0 114 20 0 21 ?1 17 114
 0 115 116 117 113 118 119 0 120 -18 20 112 0 117 109 113 7 ?1 17 117 0 115 114
 121 20 122 123 0 118 -15 115 108 0 116 124 0 17 121 0 115 117 116 106 111 125 0
 122 +17 122 0 126 127 128 106 117 123 0 0 +16 123 111 0 ?122 129 130 131 0 0 1
 17 118 0 132 133 134 20 114 119 0 128 +15 132 115 0 134 135 0 17 133 0 132 49 1
18 50 128 129 0 0 -17 134 0 132 118 49 113 136 137 0 0 +16 119 113 0 ?118 137 13
8 139 0 0 1 17 128 0 126 122 52 20 133 129 0 0 +15 126 127 0 140 141 0 17 52 0 1
26 128 140 50 54 142 0 143 +16 129 117 0 ?128 142 123 144 0 0 1 16 142 34 0 ?52
 18 129 145 0 0 1 30 144 255 0 129 146 19 0 +.0155 -.0065 .013 1233581138472396e
-31 1 0 30 146 254 0 137 139 144 0 +.0155 -.0065 0 1233581138472396e-31 1 0 30 1
9 256 0 147 144 6 0 +-.0155 -.0125 0 1 0 0 16 147 122 0 ?148 138 149 19 0 0 1 17
 148 0 150 151 97 43 152 147 0 0 +16 138 25 0 ?153 119 147 154 0 0 1 16 149 36 0
 ?151 147 155 156 0 0 1 17 151 0 150 157 148 46 45 149 0 140 +16 155 70 0 ?158 1
49 159 160 0 0 1 30 156 224 0 149 145 161 0 +.0095 -.0125 0 0 0 1 30 145 223 0 1
42 162 156 0 +.0095 -.0125 .013 .707106781186548 .707106781186548 0 30 161 225 0
 163 156 164 0 +-.0095 .0125 5e-4 0 0 -1 16 163 40 0 ?60 165 166 161 0 0 1 30 16
4 226 0 167 161 168 0 +-.0095 .0125 .012 0 1 0 16 167 43 0 ?169 170 171 164 0 0
 1 30 168 227 0 172 164 173 0 +-.0095 .0126 .012 0 0 1 16 172 45 0 ?64 174 175 1
68 0 0 1 30 173 228 0 171 168 176 0 +-.0095 .0125 .001 0 1 0 16 171 47 0 ?177 16
7 178 173 0 0 1 30 176 229 0 166 173 179 0 +.012 .0125 .001 1 2297013154396875e-
31 0 16 166 50 0 ?69 163 180 176 0 0 1 30 179 230 0 174 176 181 0 +-.0095 .0126
 .001 -1 -2297013154396875e-31 0 16 174 52 0 ?182 183 172 179 0 0 1 30 181 231 0
 178 179 184 0 +.0095 .0125 .001 0 1 0 16 178 54 0 ?185 171 186 181 0 0 1 30 184
 232 0 180 181 187 0 +.0095 .0125 .006 0 0 1 16 180 57 0 ?75 166 188 184 0 0 1 3
0 187 233 0 183 184 189 0 +.0095 .0126 .001 0 0 -1 16 183 59 0 ?190 191 174 187
 0 0 1 30 189 234 0 186 187 192 0 +.0095 .0125 .012 0 1 0 16 186 61 0 ?193 178 1
91 189 0 0 1 30 192 235 0 188 189 194 0 +.0025 .0125 .012 -1 -2297013154396875e-
31 0 16 188 64 0 ?195 180 196 192 0 0 1 30 194 236 0 191 192 160 0 +.0095 .0126
 .012 1 2297013154396875e-31 0 16 191 65 0 ?197 186 183 194 0 0 1 31 160 237 0 1
55 194 198 0 +.0123 .0095 .013 0 0 -1 -1 0 0 .002 31 198 238 0 199 160 200 0 +.0
123 .0095 0 0 0 1 -1 0 0 .002 16 199 73 0 ?201 202 203 198 0 0 1 31 200 239 0 15
9 198 204 0 +-.0122 .0095 .013 0 0 -1 -1 0 0 .002 16 159 77 0 ?205 155 18 200 0
 0 1 31 204 240 0 203 200 206 0 +-.0122 .0095 0 0 0 1 -1 0 0 .002 16 203 80 0 ?2
07 199 0 204 0 0 1 30 206 241 0 175 204 208 0 +-.0155 .0115 0 925185853854297e-3
1 -1 0 16 175 84 0 ?209 172 210 206 0 0 1 30 208 242 0 210 206 211 0 +-.0155 -.0
125 0 0 0 1 16 210 87 0 ?212 175 213 208 0 0 1 30 211 243 0 202 208 214 0 +-.015
5 .0115 .013 925185853854297e-31 -1 0 16 202 89 0 ?100 215 199 211 0 0 1 30 214
 244 0 165 211 216 0 +-.0155 .0115 0 0 0 1 16 165 91 0 ?217 213 163 214 0 0 1 31
 216 245 0 213 214 218 0 +-.0145 .0115 0 0 0 1 0 1 0 .001 16 213 94 0 ?219 210 1
65 216 0 0 1 31 218 246 0 215 216 220 0 +-.0145 .0115 .013 0 0 1 0 1 0 .001 16 2
15 96 0 ?221 130 202 218 0 0 1 30 220 247 0 222 218 223 0 +-.0145 .0125 0 0 0 1
 16 222 98 0 ?224 196 225 220 0 0 1 30 223 248 0 196 220 226 0 +.0145 .0125 0 -1
 -2297013154396875e-31 0 16 196 102 0 ?227 188 222 223 0 0 1 30 226 249 0 130 22
3 228 0 +.0145 .0125 .013 -1 -2297013154396875e-31 0 16 130 104 0 ?127 123 215 2
26 0 0 1 30 228 250 0 125 226 229 0 +.0145 .0125 0 0 0 1 16 125 106 0 ?121 225 1
37 228 0 0 1 31 229 251 0 225 228 131 0 +.0145 .0115 0 0 0 1 1 0 0 .001 16 225 1
09 0 ?116 222 125 229 0 0 1 31 131 252 0 123 229 139 0 +.0145 .0115 .013 0 0 1 1
 0 0 .001 30 139 253 0 119 131 146 0 +.0155 .0115 0 0 0 1 17 116 0 115 121 114 1
09 120 225 0 0 +17 120 0 230 136 231 113 116 225 0 134 -15 230 131 0 152 16 0 17
 136 0 230 232 120 42 134 137 0 0 -17 231 0 230 120 233 109 227 196 0 116 -17 23
3 0 230 231 234 103 219 213 0 227 -17 227 0 235 224 111 103 231 196 0 0 +15 235
 101 0 227 236 0 17 224 0 235 112 227 95 105 222 0 127 +17 111 0 235 227 112 109
 121 125 0 231 -17 112 0 235 111 224 106 127 130 0 121 -17 127 0 126 221 122 95
 112 130 0 0 +17 221 0 126 100 127 94 108 215 0 0 +17 100 0 126 140 221 98 102 2
02 0 212 +17 108 0 237 105 217 95 221 215 0 224 -15 237 93 0 219 238 0 17 105 0
 237 219 108 103 224 222 0 233 -17 217 0 237 108 219 94 93 165 0 221 +17 219 0 2
37 217 105 91 233 213 0 0 +17 93 0 239 209 102 91 217 165 0 234 -15 239 83 0 209
 240 0 17 209 0 239 212 93 90 234 175 0 152 +17 102 0 239 93 212 94 100 202 0 21
7 -17 234 0 230 233 152 91 209 175 0 219 -17 152 0 230 234 232 90 148 147 0 0 -1
7 232 0 230 152 136 43 241 242 0 148 -17 241 0 243 143 45 42 232 242 0 136 +16 2
42 29 0 ?241 244 245 246 0 0 1 16 244 19 0 ?247 24 242 248 0 0 1 16 245 32 0 ?14
3 242 170 162 0 0 1 30 246 221 0 242 154 162 0 +.0095 -.0125 0 .707106781186548
 .707106781186548 0 31 154 220 0 138 248 246 0 +.01271505186101588 -.00928494813
898413 .00681397796607186 .707106781186548 -.707106781186548 0 .707106781186548
 .707106781186548 0 .002425449602021865 30 162 222 0 245 246 145 0 +.0155 -.0065
 0 0 0 1 31 248 219 0 244 249 154 0 +.01483637220457552 -.01140626848254376 .006
81397796607186 -.707106781186548 .707106781186548 0 .707106781186548 .7071067811
86548 0 .002425449602021865 31 249 218 0 170 250 248 0 +.01271505186101588 -.009
28494813898413 .00681397796607186 -.707106781186548 .707106781186548 0 .70710678
1186548 .707106781186548 0 .003 16 170 14 0 ?251 245 167 249 0 0 1 31 250 217 0
 24 25 249 0 +.01483637220457552 -.01140626848254376 .00681397796607186 -.707106
781186548 .707106781186548 0 .707106781186548 .707106781186548 0 .0025 16 24 10
 0 ?252 9 244 250 0 0 1 31 25 216 0 9 0 250 0 +.01448281881398224 -.011052715091
9505 .00681397796607186 .707106781186548 -.707106781186548 0 .707106781186547 .7
07106781186548 0 .003 17 252 0 253 252 252 27 30 24 0 0 +15 253 9 0 252 14 0 17
 30 0 254 30 30 27 252 24 0 252 -15 254 21 0 30 255 0 14 255 17 256 ?257 258 259
 4 260 -0 0 257 258 22 81 1 256 140 261 255 262 0 263 264 265 14 257 22 264 ?266
 255 267 4 268 -0 0 266 255 22 14 258 12 263 ?255 14 269 4 270 +0 0 255 14 22 15
 259 18 0 247 255 254 50 260 197 0 255 270 268 0 +.01483637220457552 -.011406268
48254376 .00681397796607186 -.707106781186548 .707106781186548 0 .57735026918962
6 .577350269189626 .577350269189626 13 22 3 0 0 0 0 0 0 8 14 14 14 5 271 ?258 0
 272 4 273 +0 0 258 0 22 81 1 271 134 261 14 274 0 0 263 275 15 272 6 0 23 14 25
3 54 273 195 0 14 0 270 0 +.01448281881398224 -.0110527150919505 .00681397796607
186 .707106781186548 -.707106781186548 0 .0025 5e-4 .577350269189626 .5773502691
89626 .577350269189626 51 270 196 0 258 273 260 0 +.01271505186101588 -.00928494
813898413 .00681397796607186 .707106781186548 -.707106781186548 0 .003 .70710678
1186548 .707106781186548 0 17 23 0 272 23 23 10 26 9 0 0 +80 1 261 276 277 8015
 0 0 0 0 3 5 0 0 0 FFFFTFFFFFFFFF2 81 2 274 133 276 14 278 271 0 279 280 281 81
 1 263 137 261 258 279 0 271 256 282 83 1 275 0 81 2 279 136 276 258 283 263 274
 262 284 285 83 1 282 0 80 2 276 286 287 8014 0 0 0 0 3 5 0 0 0 FFFFTFFFFFFFFF2
 1 81 1 283 135 288 258 0 279 278 289 290 81 2 262 139 276 255 289 256 279 291 2
92 293 83 4 284 1 0 0 0 82 1 285 51 81 1 289 138 288 255 0 262 283 294 295 81 2
 291 142 276 257 294 264 262 296 297 298 83 4 292 1 0 0 0 82 1 293 51 81 1 294 1
41 288 257 0 291 289 299 300 81 1 264 143 261 257 291 0 256 301 302 81 2 296 145
 276 266 299 301 291 303 304 305 83 4 297 1 0 0 0 82 1 298 51 14 266 27 301 ?306
 257 243 4 307 +0 0 306 257 22 81 1 299 144 288 266 0 296 294 308 309 81 1 301 1
46 261 266 296 0 264 310 311 81 2 303 148 276 306 308 310 296 312 313 314 83 4 3
04 1 0 0 0 82 1 305 54 14 306 38 310 ?315 266 316 4 317 +0 0 315 266 22 81 1 308
 147 288 306 0 303 299 318 319 81 1 310 149 261 306 303 0 301 320 321 81 2 312 1
51 276 315 318 320 303 322 323 324 83 4 313 1 0 0 0 82 1 314 51 14 315 48 320 ?3
25 306 326 4 327 +0 0 325 306 22 81 1 318 150 288 315 0 312 308 328 329 81 1 320
 152 261 315 312 0 310 330 331 81 2 322 154 276 325 328 330 312 332 333 334 83 4
 323 1 0 0 0 82 1 324 51 14 325 55 330 ?335 315 336 4 337 +0 0 335 315 22 81 1 3
28 153 288 325 0 322 318 338 339 81 1 330 155 261 325 322 0 320 340 341 81 2 332
 157 276 335 338 340 322 342 343 344 83 4 333 1 0 0 0 82 1 334 51 14 335 62 340
 ?345 325 346 4 347 +0 0 345 325 22 81 1 338 156 288 335 0 332 328 348 349 81 1
 340 158 261 335 332 0 330 350 351 81 2 342 160 276 345 348 350 332 352 353 354
 83 4 343 1 0 0 0 82 1 344 51 14 345 66 350 ?355 335 356 4 357 +0 0 355 335 22 8
1 1 348 159 288 345 0 342 338 358 359 81 1 350 161 261 345 342 0 340 360 361 81
 2 352 163 276 355 358 360 342 362 363 364 83 4 353 1 0 106692320507307e-19 1066
92320507307e-19 82 1 354 52 14 355 68 360 ?365 345 366 4 367 -0 0 365 345 22 81
 1 358 162 288 355 0 352 348 368 369 81 1 360 164 261 355 352 0 350 370 371 81 2
 362 166 276 365 368 370 352 372 373 374 83 4 363 1 0 0 0 82 1 364 51 14 365 75
 370 ?240 355 375 4 376 -0 0 240 355 22 81 1 368 165 288 365 0 362 358 377 378 8
1 1 370 167 261 365 362 0 360 379 380 81 2 372 169 276 240 377 379 362 381 382 3
83 83 4 373 1 0 0 0 82 1 374 51 14 240 82 379 ?238 365 239 4 384 +0 0 238 365 22
 81 1 377 168 288 240 0 372 368 385 386 81 1 379 170 261 240 372 0 370 387 388 8
1 2 381 172 276 238 385 387 372 389 390 391 83 4 382 1 0 0 0 82 1 383 54 14 238
 92 387 ?236 240 237 4 392 +0 0 236 240 22 81 1 385 171 288 238 0 381 377 393 39
4 81 1 387 173 261 238 381 0 379 395 396 81 2 389 175 276 236 393 395 381 397 39
8 399 83 4 390 1 0 0 0 82 1 391 54 14 236 99 395 ?124 238 400 4 401 +0 0 124 238
 22 81 1 393 174 288 236 0 389 385 402 403 81 1 395 176 261 236 389 0 387 404 40
5 81 2 397 178 276 124 402 404 389 406 407 408 83 4 398 1 0 0 0 82 1 399 54 14 1
24 107 404 ?135 236 115 4 409 +0 0 135 236 22 81 1 402 177 288 124 0 397 393 410
 411 81 1 404 179 261 124 397 0 395 412 413 81 2 406 181 276 135 410 412 397 414
 415 416 83 4 407 1 0 0 0 82 1 408 51 14 135 114 412 ?417 124 132 4 418 +0 0 417
 124 22 81 1 410 180 288 135 0 406 402 419 420 81 1 412 182 261 135 406 0 404 42
1 422 81 2 414 184 276 417 419 421 406 423 424 425 83 4 415 1 0 0 0 82 1 416 54
 14 417 118 421 ?426 135 427 4 428 +0 0 426 135 22 81 1 419 183 288 417 0 414 41
0 429 430 81 1 421 185 261 417 414 0 412 431 432 81 2 423 187 276 426 429 431 41
4 433 434 435 83 4 424 1 0 0 0 82 1 425 51 14 426 120 431 ?141 417 150 4 436 +0
 0 141 417 22 81 1 429 186 288 426 0 423 419 437 438 81 1 431 188 261 426 423 0
 421 439 440 81 2 433 190 276 141 437 439 423 441 442 443 83 4 434 1 0 0 0 82 1
 435 54 14 141 124 439 ?16 426 444 4 17 +0 0 16 426 22 81 1 437 189 288 141 0 43
3 429 445 446 81 1 439 191 261 141 433 0 431 447 448 81 2 441 193 276 16 445 447
 433 0 449 450 83 4 442 1 0 0 0 82 1 443 54 14 16 128 447 ?0 141 451 4 5 -0 0 0
 141 22 81 1 445 192 288 16 0 441 437 0 452 81 1 447 194 261 16 441 0 439 0 453
 83 4 449 1 0 0 0 82 1 450 54 83 1 453 0 80 1 288 0 454 8001 0 0 0 0 3 5 0 0 0 F
FFFTFTFFFFFFF2 83 3 452 .3333333333333335 .3333333333333335 .3333333333333335 79
 15 454 SDL/TYSA_COLOUR15 451 129 0 201 16 455 17 201 0 451 201 201 81 83 199 0
 0 +15 455 130 0 207 16 230 17 207 0 455 207 207 87 89 203 0 0 +17 89 0 456 89 8
9 87 207 203 0 207 -15 456 79 0 89 365 0 17 83 0 457 83 83 81 201 199 0 201 -15
 457 72 0 83 355 0 83 1 448 0 83 3 446 .3333333333333335 .3333333333333335 .3333
333333333335 15 444 125 0 158 141 458 50 17 214 0 141 436 5 0 +-.000579681086590
423 .000290019059604628 .013 0 0 1 .707106781186548 .707106781186548 0 50 436 21
3 0 426 428 17 0 +-.0155 -.0125 0 0 -1 0 .707106781186548 0 .707106781186548 50
 428 212 0 417 418 436 0 +.0095 -.0125 0 .707106781186548 -.707106781186548 0 .5
77350269189626 .577350269189626 .577350269189626 50 418 211 0 135 409 428 0 +.01
55 -.0065 0 1 -1233581138472396e-31 0 872273588157653e-31 .707106781186548 .7071
06781186548 51 409 210 0 124 401 418 0 +.0145 .0115 0 0 0 1 .001 1 0 0 50 401 20
9 0 236 392 409 0 +.0145 .0125 0 -2297013154396875e-31 1 0 .707106781186548 1624
233577948735e-31 .707106781186548 51 392 208 0 238 384 401 0 +-.0145 .0115 0 0 0
 1 .001 0 1 0 50 384 207 0 240 376 392 0 +-.0155 .0115 0 -1 -925185853854297e-31
 0 -65420519111824e-30 .707106781186548 .707106781186548 51 376 206 0 365 367 38
4 0 +-.0122 .0095 0 0 0 1 .002 -1 0 0 51 367 205 0 355 357 376 0 +.0123 .0095 0
 0 0 1 .002 -1 0 0 50 357 204 0 345 347 367 0 +-2220446049250315e-33 .0126 .0065
 0 1 0 .707106781186548 0 .707106781186548 50 347 203 0 335 337 357 0 +-.0095 .0
125 .012 0 0 1 .707106781186548 .707106781186548 0 50 337 202 0 325 327 347 0 +.
0095 .0125 .012 1 0 0 0 .707106781186548 .707106781186548 50 327 201 0 315 317 3
37 0 +.0095 .0125 .001 0 0 -1 .707106781186548 .707106781186548 0 50 317 200 0 3
06 307 327 0 +-.0095 .0125 .001 -1 0 0 0 .707106781186548 .707106781186548 50 30
7 199 0 266 268 317 0 +.0095 -.0125 0 .707106781186548 -.707106781186548 0 .5773
50269189626 .577350269189626 .577350269189626 51 268 198 0 257 260 307 0 +.01271
505186101588 -.00928494813898413 .00681397796607186 .707106781186548 -.707106781
186548 0 .002425449602021865 .707106781186548 .707106781186548 0 17 158 0 444 15
8 158 76 80 155 0 0 +15 458 126 0 205 141 126 17 205 0 458 205 205 84 86 159 0 0
 +17 86 0 375 86 86 84 205 159 0 205 -15 375 76 0 86 365 456 17 80 0 366 80 80 7
6 158 155 0 158 -15 366 69 0 80 355 457 83 1 440 0 83 3 438 .3333333333333335 .3
333333333333335 .3333333333333335 15 150 121 0 148 426 0 83 1 432 0 83 3 430 .33
33333333333335 .3333333333333335 .3333333333333335 15 427 119 0 153 417 0 17 153
 0 427 153 153 39 41 138 0 0 +17 41 0 459 41 41 39 153 138 0 153 -15 459 24 0 41
 257 0 83 1 422 0 83 3 420 .3333333333333335 .3333333333333335 .3333333333333335
 83 1 413 0 83 3 411 .3333333333333335 .3333333333333335 .3333333333333335 83 1
 405 0 83 3 403 .3333333333333335 .3333333333333335 .3333333333333335 15 400 100
 0 60 236 235 17 60 0 400 69 195 58 56 163 0 460 +17 69 0 400 75 60 67 461 166 0
 462 +17 195 0 400 60 75 47 463 188 0 0 +17 56 0 316 169 460 47 60 163 0 464 -17
 460 0 316 56 66 58 177 171 0 461 -15 316 39 0 56 306 0 17 66 0 316 460 169 61 6
4 172 0 177 -17 177 0 326 72 461 61 460 171 0 182 +17 461 0 326 177 462 58 69 16
6 0 0 -15 326 49 0 461 315 0 17 462 0 326 461 72 67 185 178 0 465 -17 72 0 326 4
62 177 62 182 174 0 185 -17 185 0 336 78 465 62 462 178 0 190 +17 465 0 336 185
 466 67 75 180 0 0 -15 336 56 0 465 325 0 17 466 0 336 465 78 73 193 186 0 463 -
17 75 0 400 195 69 73 465 180 0 466 +17 78 0 336 466 185 70 190 183 0 193 -17 19
3 0 346 467 463 70 466 186 0 197 +17 463 0 346 193 464 73 195 188 0 0 -15 346 63
 0 463 335 0 17 464 0 346 463 467 47 169 167 0 195 -17 467 0 346 464 193 57 197
 191 0 0 -17 169 0 316 66 56 57 464 167 0 467 +17 197 0 356 190 64 70 467 191 0
 0 +15 356 67 0 197 345 0 17 190 0 356 182 197 62 78 183 0 0 +17 64 0 356 197 18
2 57 66 172 0 169 +17 182 0 356 64 190 61 72 174 0 0 +83 1 396 0 83 3 394 .33333
33333333335 .3333333333333335 .3333333333333335 83 1 388 0 83 3 386 .33333333333
33335 .3333333333333335 .3333333333333335 83 1 380 0 83 3 378 .3333333333333335
 .3333333333333335 .3333333333333335 83 1 371 0 83 3 369 .3333333333333335 .3333
333333333335 .3333333333333335 83 1 361 0 83 3 359 .799999992052714 .33333333333
33335 .3333333333333335 83 1 351 0 83 3 349 .3333333333333335 .3333333333333335
 .3333333333333335 83 1 341 0 83 3 339 .3333333333333335 .3333333333333335 .3333
333333333335 83 1 331 0 83 3 329 .3333333333333335 .3333333333333335 .3333333333
333335 83 1 321 0 83 3 319 .3333333333333335 .3333333333333335 .3333333333333335
 83 1 311 0 83 3 309 .3333333333333335 .3333333333333335 .3333333333333335 15 24
3 28 0 241 266 468 15 468 37 0 251 266 0 17 251 0 468 251 251 31 35 170 0 0 +17
 35 0 269 35 35 31 251 170 0 251 -15 269 13 0 35 258 29 15 29 16 0 26 258 0 83 1
 302 0 83 3 300 .3333333333333335 .3333333333333335 .3333333333333335 83 3 295 .
3333333333333335 .3333333333333335 .3333333333333335 81 1 278 132 288 14 0 274 0
 283 469 83 3 290 .3333333333333335 .3333333333333335 .3333333333333335 83 3 469
 .3333333333333335 .3333333333333335 .3333333333333335 79 21 287 SDL/TYSA_REFLEC
TIVITY83 4 280 1 0 0 0 82 1 281 51 79 21 277 SDL/TYSA_TRANSLUCENCY17 247 0 259 2
47 247 36 38 244 0 0 +17 38 0 267 38 38 36 247 244 0 247 -15 267 23 0 38 257 459
 83 1 265 0 17 143 0 243 54 241 50 49 245 0 133 +17 54 0 243 45 143 46 52 142 0
 151 -17 49 0 132 134 133 42 143 245 0 241 -17 45 0 243 241 54 43 151 149 0 232
 -17 212 0 239 102 209 98 97 210 0 157 +17 97 0 150 148 157 90 212 210 0 209 -17
 157 0 150 97 151 98 140 18 0 0 -17 140 0 126 52 100 46 157 18 0 0 +16 18 123 0
 ?140 159 142 6 0 0 1 16 137 116 0 ?134 125 119 146 0 0 1 19 15 1 0 1 0 8 4 S0 7
4 20 13 4 0 0 445 441 447 2 0 0 0 0 0 0 0 0 0 0 0 0 0 0 0 0 80 1 11 470 471 8017
 0 0 0 0 0 0 0 0 0 TTTTTTTTTTTTTF3 84 6 12 Solid179 13 471 SDL/TYSA_NAME1 0 
